HIERARCHY
ROOT Hips
{
    OFFSET   0.000000   0.000000   0.000000
    CHANNELS 6 Xposition Yposition Zposition Zrotation Xrotation Yrotation
    JOINT Chest
    {
        OFFSET   0.000000   8.007230   0.000000
        CHANNELS 3 Zrotation Xrotation Yrotation
        JOINT Chest2
        {
            OFFSET   0.000000  22.077100   0.000000
            CHANNELS 3 Zrotation Xrotation Yrotation
            JOINT Neck
            {
                OFFSET   0.000000  23.254800  -0.000021
                CHANNELS 3 Zrotation Xrotation Yrotation
                JOINT Head
                {
                    OFFSET   0.000000  14.370000   1.956610
                    CHANNELS 3 Zrotation Xrotation Yrotation
                    End Site
                    {
                        OFFSET   0.000000  19.566000   0.000000
                    }
                }
            }
            JOINT LeftCollar
            {
                OFFSET   3.911900  19.017000  -0.467063
                CHANNELS 3 Zrotation Xrotation Yrotation
                JOINT LeftShoulder
                {
                    OFFSET  10.383700   0.000000   0.000000
                    CHANNELS 3 Zrotation Xrotation Yrotation
                    JOINT LeftElbow
                    {
                        OFFSET  26.662100   0.001529   0.000325
                        CHANNELS 3 Zrotation Xrotation Yrotation
                        JOINT LeftWrist
                        {
                            OFFSET  28.869000  -0.000011  -0.000096
                            CHANNELS 3 Zrotation Xrotation Yrotation
                            JOINT LeftFinger0
                            {
                                OFFSET   2.044650  -2.323460   3.252850
                                CHANNELS 3 Zrotation Xrotation Yrotation
                                JOINT LeftFinger01
                                {
                                    OFFSET   3.088130   0.000000   0.000000
                                    CHANNELS 3 Zrotation Xrotation Yrotation
                                    JOINT LeftFinger02
                                    {
                                        OFFSET   2.639460   0.000000   0.000000
                                        CHANNELS 3 Zrotation Xrotation Yrotation
                                        End Site
                                        {
                                            OFFSET   2.582190   0.000000   0.000000
                                        }
                                    }
                                }
                            }
                            JOINT LeftFinger1
                            {
                                OFFSET   8.364480   0.000000   3.252850
                                CHANNELS 3 Zrotation Xrotation Yrotation
                                JOINT LeftFinger11
                                {
                                    OFFSET   4.646930   0.000000   0.000000
                                    CHANNELS 3 Zrotation Xrotation Yrotation
                                    JOINT LeftFinger12
                                    {
                                        OFFSET   2.323460   0.000000   0.000000
                                        CHANNELS 3 Zrotation Xrotation Yrotation
                                        End Site
                                        {
                                            OFFSET   2.273050   0.000000   0.000000
                                        }
                                    }
                                }
                            }
                            JOINT LeftFinger2
                            {
                                OFFSET   8.364480   0.000016   1.078090
                                CHANNELS 3 Zrotation Xrotation Yrotation
                                JOINT LeftFinger21
                                {
                                    OFFSET   5.111620   0.000000   0.000000
                                    CHANNELS 3 Zrotation Xrotation Yrotation
                                    JOINT LeftFinger22
                                    {
                                        OFFSET   2.788160   0.000017   0.000000
                                        CHANNELS 3 Zrotation Xrotation Yrotation
                                        End Site
                                        {
                                            OFFSET   2.727660   0.000000   0.000000
                                        }
                                    }
                                }
                            }
                            JOINT LeftFinger3
                            {
                                OFFSET   7.899780   0.000015  -1.078090
                                CHANNELS 3 Zrotation Xrotation Yrotation
                                JOINT LeftFinger31
                                {
                                    OFFSET   4.646920   0.000000   0.000000
                                    CHANNELS 3 Zrotation Xrotation Yrotation
                                    JOINT LeftFinger32
                                    {
                                        OFFSET   2.323470   0.000000   0.000000
                                        CHANNELS 3 Zrotation Xrotation Yrotation
                                        End Site
                                        {
                                            OFFSET   2.273050   0.000000   0.000000
                                        }
                                    }
                                }
                            }
                            JOINT LeftFinger4
                            {
                                OFFSET   7.435090   0.000000  -3.252850
                                CHANNELS 3 Zrotation Xrotation Yrotation
                                JOINT LeftFinger41
                                {
                                    OFFSET   3.717550   0.000000   0.000000
                                    CHANNELS 3 Zrotation Xrotation Yrotation
                                    JOINT LeftFinger42
                                    {
                                        OFFSET   1.858760   0.000000   0.000000
                                        CHANNELS 3 Zrotation Xrotation Yrotation
                                        End Site
                                        {
                                            OFFSET   1.818440   0.000000   0.000000
                                        }
                                    }
                                }
                            }
                        }
                    }
                }
            }
            JOINT RightCollar
            {
                OFFSET  -3.911900  19.017000  -0.467062
                CHANNELS 3 Zrotation Xrotation Yrotation
                JOINT RightShoulder
                {
                    OFFSET -10.383700   0.000015   0.000000
                    CHANNELS 3 Zrotation Xrotation Yrotation
                    JOINT RightElbow
                    {
                        OFFSET -26.662100   0.001341   0.000385
                        CHANNELS 3 Zrotation Xrotation Yrotation
                        JOINT RightWrist
                        {
                            OFFSET -28.869000   0.000025  -0.000080
                            CHANNELS 3 Zrotation Xrotation Yrotation
                            JOINT RightFinger0
                            {
                                OFFSET  -2.044650  -2.323490   3.252850
                                CHANNELS 3 Zrotation Xrotation Yrotation
                                JOINT RightFinger01
                                {
                                    OFFSET  -3.088130   0.000000   0.000000
                                    CHANNELS 3 Zrotation Xrotation Yrotation
                                    JOINT RightFinger02
                                    {
                                        OFFSET  -2.639460   0.000000   0.000000
                                        CHANNELS 3 Zrotation Xrotation Yrotation
                                        End Site
                                        {
                                            OFFSET  -2.582190   0.000000   0.000000
                                        }
                                    }
                                }
                            }
                            JOINT RightFinger1
                            {
                                OFFSET  -8.364480   0.000000   3.252850
                                CHANNELS 3 Zrotation Xrotation Yrotation
                                JOINT RightFinger11
                                {
                                    OFFSET  -4.646930   0.000000   0.000000
                                    CHANNELS 3 Zrotation Xrotation Yrotation
                                    JOINT RightFinger12
                                    {
                                        OFFSET  -2.323470   0.000000   0.000000
                                        CHANNELS 3 Zrotation Xrotation Yrotation
                                        End Site
                                        {
                                            OFFSET  -2.273050   0.000000   0.000000
                                        }
                                    }
                                }
                            }
                            JOINT RightFinger2
                            {
                                OFFSET  -8.364480   0.000000   1.078090
                                CHANNELS 3 Zrotation Xrotation Yrotation
                                JOINT RightFinger21
                                {
                                    OFFSET  -5.111610   0.000000   0.000000
                                    CHANNELS 3 Zrotation Xrotation Yrotation
                                    JOINT RightFinger22
                                    {
                                        OFFSET  -2.788160   0.000000   0.000000
                                        CHANNELS 3 Zrotation Xrotation Yrotation
                                        End Site
                                        {
                                            OFFSET  -2.727660   0.000000   0.000000
                                        }
                                    }
                                }
                            }
                            JOINT RightFinger3
                            {
                                OFFSET  -7.899780   0.000000  -1.078090
                                CHANNELS 3 Zrotation Xrotation Yrotation
                                JOINT RightFinger31
                                {
                                    OFFSET  -4.646920   0.000000   0.000000
                                    CHANNELS 3 Zrotation Xrotation Yrotation
                                    JOINT RightFinger32
                                    {
                                        OFFSET  -2.323470   0.000000   0.000000
                                        CHANNELS 3 Zrotation Xrotation Yrotation
                                        End Site
                                        {
                                            OFFSET  -2.273050   0.000000   0.000000
                                        }
                                    }
                                }
                            }
                            JOINT RightFinger4
                            {
                                OFFSET  -7.435090   0.000000  -3.252850
                                CHANNELS 3 Zrotation Xrotation Yrotation
                                JOINT RightFinger41
                                {
                                    OFFSET  -3.717550   0.000000   0.000000
                                    CHANNELS 3 Zrotation Xrotation Yrotation
                                    JOINT RightFinger42
                                    {
                                        OFFSET  -1.858770   0.000000   0.000000
                                        CHANNELS 3 Zrotation Xrotation Yrotation
                                        End Site
                                        {
                                            OFFSET  -1.818440   0.000000   0.000000
                                        }
                                    }
                                }
                            }
                        }
                    }
                }
            }
        }
    }
    JOINT LeftHip
    {
        OFFSET   9.783010   0.000000   0.000000
        CHANNELS 3 Zrotation Xrotation Yrotation
        JOINT LeftKnee
        {
            OFFSET   0.000070 -41.789100   0.000028
            CHANNELS 3 Zrotation Xrotation Yrotation
            JOINT LeftAnkle
            {
                OFFSET   0.000087 -41.133200  -0.000100
                CHANNELS 3 Zrotation Xrotation Yrotation
                JOINT LeftToe
                {
                    OFFSET   0.000000  -6.358960  14.674500
                    CHANNELS 3 Zrotation Xrotation Yrotation
                    End Site
                    {
                        OFFSET   0.000000   0.000000   3.913200
                    }
                }
            }
        }
    }
    JOINT RightHip
    {
        OFFSET  -9.783020   0.000000   0.000000
        CHANNELS 3 Zrotation Xrotation Yrotation
        JOINT RightKnee
        {
            OFFSET   0.000044 -41.789100  -0.000870
            CHANNELS 3 Zrotation Xrotation Yrotation
            JOINT RightAnkle
            {
                OFFSET  -0.000090 -41.133200  -0.000245
                CHANNELS 3 Zrotation Xrotation Yrotation
                JOINT RightToe
                {
                    OFFSET   0.000000  -6.358960  14.674500
                    CHANNELS 3 Zrotation Xrotation Yrotation
                    End Site
                    {
                        OFFSET   0.000000   0.000000   3.913200
                    }
                }
            }
        }
    }
}
MOTION
Frames: 6
Frame Time:   0.016667
 -0.595857  89.988300  -2.938850  -2.058660 -13.573300  -2.165780  -1.352280  11.918200   2.329800  -3.322630  23.764900   5.125440   3.204000  -2.115340   0.111873   5.283550  -4.249440  -3.855460  -6.112870 -10.674200   1.345410 -61.210800  32.465300  -7.025050  -5.621410 -12.912600 -18.096100  12.715200  -6.862260   7.169720  34.394000  16.338200 -60.696400 -20.841000   0.000751   0.000321  -5.420480  -0.003847   0.001727 -28.006700   7.497400 -13.783300 -23.656400   0.002465   0.004575 -16.559700  -0.001919   0.000652 -28.643200   2.816910  -5.141410 -40.890800  -0.005474   0.002048 -27.233300  -0.006217   0.005620 -26.581600   2.629880  -5.239360 -26.701900   0.000131   0.001250 -17.783400  -0.001209   0.003708 -30.639200   1.135450  -1.914990 -45.987200  -0.003059  -0.000394 -30.627400  -0.001798   0.000969   9.112430  -4.861470  16.050300  28.117000  31.005400  75.615900  -5.527950 -27.282200  95.701900  36.190500 -23.504100  26.117300 -55.551400  33.090300  55.683000  -6.122190  -0.001837  -0.000112  -8.061100  -0.001099   0.002778  88.995600   5.007000   0.094511  81.241500   0.002635   0.004286  60.931000   0.002095  -0.000703  89.007100   0.006199  -0.005843  99.838900   0.000869  -0.001679  74.879200  -0.001532  -0.001475  88.996200  -4.996550  -0.087746 101.219000   0.000182  -0.001407  75.914400   0.000433  -0.000583  88.984600  -9.997860  -0.176601 110.000000  -0.004557  -0.010812  80.000000  -0.001075   0.005667   1.923550  12.218400   1.957640   0.912750   2.405160  10.642900  -6.364770  -2.739710   2.419850  -0.000000   0.000000   0.000000   4.146040   9.928650  -8.334160  -2.757870   6.489170  -2.903650  -9.820130  -0.242105   4.984720  -0.000000   0.000000  -0.000000
 -0.588802  89.991700  -2.912940  -2.040510 -13.561200  -2.037140  -1.356980  11.900200   2.301330  -3.324760  23.729900   5.066550   3.177930  -2.100460   0.112022   5.240340  -4.220050  -3.816780  -6.109690 -10.640800   1.350320 -61.234400  32.439500  -6.960170  -5.615400 -12.908800 -18.030600  12.725600  -6.880410   7.210810  34.391600  16.322200 -60.716900 -20.891200   0.000720   0.000319  -5.445580  -0.003863   0.001793 -28.008000   7.502360 -13.792100 -23.659300   0.002449   0.004600 -16.561700  -0.002000   0.000702 -28.645700   2.788780  -5.089950 -40.874700  -0.005545   0.002133 -27.222600  -0.006335   0.005649 -26.572900   2.602600  -5.187440 -26.690900   0.000123   0.001256 -17.776100  -0.001224   0.003674 -30.607300   1.140380  -1.926940 -45.939700  -0.003055  -0.000409 -30.595800  -0.001767   0.000991   9.121810  -4.854350  16.020000  28.253100  30.947500  75.468800  -5.422480 -27.308900  95.726500  36.274200 -23.479000  26.224600 -55.654300  33.177300  55.736300  -6.122090  -0.001765  -0.000099  -8.061040  -0.001102   0.002880  88.995600   5.007050   0.094580  81.418000   0.002693   0.004354  61.063500   0.002182  -0.000768  89.007200   0.006219  -0.005737  99.802900   0.001015  -0.001582  74.852200  -0.001388  -0.001539  88.996200  -4.996530  -0.087748 101.131000   0.000273  -0.001378  75.848100   0.000362  -0.000638  88.984600  -9.997700  -0.176607 110.000000  -0.004501  -0.010747  80.000000  -0.001048   0.005726   1.947650  12.231300   1.971910   0.899744   2.350040  10.548200  -6.371670  -2.718040   2.380130  -0.000000   0.000000   0.000000   4.145220   9.958610  -8.334410  -2.726060   6.453230  -2.978250  -9.830600  -0.233648   4.925340  -0.000000   0.000000   0.000000
 -0.583062  89.995200  -2.891220  -2.023430 -13.548300  -1.931310  -1.361480  11.884000   2.265710  -3.325000  23.698400   4.992950   3.145740  -2.090620   0.112130   5.187120  -4.200890  -3.764960  -6.105660 -10.613100   1.370480 -61.266200  32.396600  -6.878990  -5.610210 -12.909600 -17.969400  12.726100  -6.873230   7.247770  34.365300  16.341700 -60.786400 -20.927600   0.000693   0.000297  -5.463810  -0.003882   0.001860 -28.021600   7.455650 -13.702400 -23.660300   0.002434   0.004626 -16.562300  -0.002082   0.000748 -28.647500   2.775600  -5.065790 -40.870400  -0.005617   0.002219 -27.219700  -0.006452   0.005679 -26.572900   2.590260  -5.162820 -26.689500   0.000109   0.001259 -17.775200  -0.001240   0.003642 -30.585100   1.144300  -1.935240 -45.906700  -0.003053  -0.000425 -30.573800  -0.001739   0.001017   9.111940  -4.860710  16.001000  28.328900  30.891000  75.372300  -5.299160 -27.356600  95.695900  36.301300 -23.467900  26.318000 -55.737000  33.226000  55.656200  -6.194130  -0.001690  -0.000095  -8.097070  -0.001104   0.002986  88.995600   5.007100   0.094643  81.425000   0.002757   0.004420  61.068800   0.002285  -0.000825  89.007300   0.006238  -0.005618  99.771500   0.001158  -0.001466  74.828700  -0.001241  -0.001589  88.996200  -4.996520  -0.087738 101.090000   0.000363  -0.001352  75.817100   0.000298  -0.000683  88.984600  -9.997530  -0.176604 110.000000  -0.004449  -0.010672  80.000000  -0.001018   0.005779   1.966120  12.235100   1.975850   0.888420   2.306940  10.478500  -6.377190  -2.700540   2.345340   0.000000   0.000000  -0.000000   4.144300   9.986570  -8.329050  -2.701410   6.422200  -3.032840  -9.840910  -0.227497   4.861450   0.000000   0.000000  -0.000000
 -0.578138  89.999100  -2.873420  -2.009600 -13.533700  -1.853190  -1.366090  11.867900   2.230200  -3.325540  23.667300   4.919600   3.113400  -2.083300   0.112200   5.133680  -4.186860  -3.718650  -6.101490 -10.587000   1.394090 -61.297400  32.344500  -6.789780  -5.608670 -12.910300 -17.904800  12.714500  -6.845220   7.267590  34.317500  16.376300 -60.869900 -20.955900   0.000666   0.000279  -5.477960  -0.003900   0.001925 -28.035000   7.408890 -13.612700 -23.662400   0.002417   0.004651 -16.563700  -0.002163   0.000794 -28.648600   2.768020  -5.051960 -40.862100  -0.005689   0.002304 -27.214100  -0.006569   0.005710 -26.571900   2.582970  -5.148800 -26.688000   0.000094   0.001263 -17.774200  -0.001257   0.003611 -30.559600   1.148780  -1.944780 -45.868800  -0.003050  -0.000438 -30.548600  -0.001713   0.001042   9.096920  -4.873420  15.983000  28.375300  30.825500  75.301000  -5.231930 -27.388700  95.661300  36.322800 -23.459500  26.419400 -55.880600  33.287700  55.534100  -6.305240  -0.001617  -0.000093  -8.152630  -0.001109   0.003099  88.995600   5.007150   0.094702  81.432000   0.002827   0.004486  61.074100   0.002396  -0.000877  89.007300   0.006255  -0.005501  99.747300   0.001307  -0.001342  74.810500  -0.001089  -0.001641  88.996200  -4.996500  -0.087727 101.055000   0.000459  -0.001325  75.791400   0.000239  -0.000733  88.984500  -9.997350  -0.176601 110.000000  -0.004397  -0.010593  80.000000  -0.000988   0.005828   1.978000  12.235600   1.977880   0.877582   2.272340  10.428000  -6.380020  -2.687120   2.326580   0.000000   0.000000   0.000000   4.141880  10.002700  -8.313380  -2.682090   6.401140  -3.076040  -9.851010  -0.224907   4.805250  -0.000000   0.000000   0.000000
 -0.573662  90.003500  -2.860460  -2.001710 -13.516300  -1.813460  -1.371710  11.851900   2.202520  -3.329960  23.636000   4.862700   3.088100  -2.078560   0.112232   5.091880  -4.178010  -3.692390  -6.097410 -10.566300   1.414910 -61.318100  32.288800  -6.695040  -5.610940 -12.887200 -17.839600  12.684700  -6.786890   7.266480  34.276200  16.386100 -60.923300 -20.983200   0.000636   0.000300  -5.491570  -0.003910   0.001984 -28.038900   7.438900 -13.664200 -23.671100   0.002397   0.004674 -16.569700  -0.002244   0.000842 -28.650100   2.757390  -5.032790 -40.824500  -0.005761   0.002391 -27.189000  -0.006687   0.005743 -26.558100   2.571020  -5.130250 -26.673600   0.000079   0.001270 -17.764600  -0.001275   0.003579 -30.524600   1.154930  -1.957950 -45.816600  -0.003045  -0.000448 -30.513900  -0.001688   0.001064   9.084650  -4.890320  15.959700  28.378900  30.757400  75.268100  -6.538960  -0.008754  89.953200  36.362100 -23.443100  26.555400 -55.976600  33.325200  55.395900  -6.388540  -0.001550  -0.000090  -8.194280  -0.001121   0.003225  88.995600   5.007200   0.094760  81.550900   0.002900   0.004558  61.163300   0.002507  -0.000929  89.007400   0.006270  -0.005405  99.741700   0.001474  -0.001220  74.806300  -0.000930  -0.001708  88.996200  -4.996480  -0.087743 100.998000   0.000570  -0.001299  75.748400   0.000185  -0.000809  88.984600  -9.997190  -0.176613 110.000000  -0.004341  -0.010510  80.000000  -0.000961   0.005876   1.981330  12.230800   1.982890   0.868817   2.245560  10.395900  -6.380420  -2.678500   2.325180  -0.000000   0.000000   0.000000   4.137140  10.005200  -8.283380  -2.666440   6.393970  -3.118400  -9.861480  -0.227784   4.764290   0.000000   0.000000  -0.000000
 -0.569225  90.008100  -2.850480  -1.999310 -13.497800  -1.802930  -1.376920  11.836100   2.180380  -3.334760  23.604900   4.817170   3.066000  -2.074490   0.112237   5.055350  -4.170470  -3.675410  -6.094000 -10.546700   1.433810 -61.334200  32.228700  -6.600820  -5.615320 -12.848500 -17.770500  12.651300  -6.710960   7.263790  34.255500  16.382400 -60.958900 -21.006800   0.000603   0.000321  -5.503370  -0.003919   0.002038 -28.036700   7.480950 -13.738500 -23.677500   0.002375   0.004699 -16.574200  -0.002325   0.000890 -28.650800   2.751430  -5.022110 -40.768300  -0.005834   0.002477 -27.151600  -0.006805   0.005776 -26.531100   2.563910  -5.120120 -26.645700   0.000060   0.001276 -17.746100  -0.001292   0.003548 -30.481900   1.162430  -1.974040 -45.753000  -0.003041  -0.000455 -30.471500  -0.001665   0.001086   9.072830  -4.907370  15.936900  28.378100  30.691400  75.243600  -5.116410 -27.555300  95.497500  36.391400 -23.428500  26.692000 -56.072900  33.365100  55.275900  -6.434600  -0.001489  -0.000086  -8.217310  -0.001136   0.003356  88.995600   5.007250   0.094814  81.659300   0.002977   0.004630  61.244500   0.002626  -0.000981  89.007500   0.006278  -0.005311  99.735700   0.001644  -0.001092  74.801800  -0.000764  -0.001781  88.996200  -4.996470  -0.087759 100.925000   0.000685  -0.001267  75.694000   0.000129  -0.000890  88.984600  -9.997030  -0.176626 110.000000  -0.004286  -0.010424  80.000000  -0.000933   0.005923   1.981270  12.223200   1.987240   0.863628   2.225770  10.384100  -6.380420  -2.675240   2.324980   0.000000   0.000000   0.000000   4.133260  10.006200  -8.252070  -2.659210   6.392850  -3.140470  -9.871120  -0.233987   4.745780  -0.000000   0.000000   0.000000
